<?xml version="1.0" standalone="no"?>
<!DOCTYPE svg PUBLIC "-//W3C//DTD SVG 20010904//EN"
 "http://www.w3.org/TR/2001/REC-SVG-20010904/DTD/svg10.dtd">
<svg version="1.0" xmlns="http://www.w3.org/2000/svg"
 width="13pt" height="13pt" viewBox="0 0 512.000000 500.000000"
 preserveAspectRatio="xMidYMid meet">

<g transform="translate(0.000000,500.000000) scale(0.100000,-0.100000)"
fill="#7E7E7E" stroke="none">
<path d="M1935 4989 c-272 -18 -517 -85 -770 -208 -788 -385 -1252 -1234
-1150 -2106 45 -381 186 -729 424 -1040 64 -84 242 -266 331 -338 553 -446
1289 -582 1965 -362 125 41 376 161 479 229 l68 45 142 -127 c78 -70 359 -323
625 -562 266 -239 498 -444 515 -456 59 -39 118 -56 196 -56 144 0 259 71 322
200 30 61 33 75 33 157 -1 77 -5 98 -28 146 -15 30 -41 72 -59 91 -23 26
-1210 1095 -1236 1113 -1 1 25 47 59 101 289 459 384 1039 258 1577 -162 694
-685 1267 -1363 1493 -170 56 -345 91 -526 104 -80 5 -152 9 -160 8 -8 0 -64
-4 -125 -9z m310 -469 c273 -31 515 -118 735 -265 673 -450 910 -1333 551
-2057 -224 -450 -628 -761 -1131 -870 -90 -19 -135 -22 -315 -23 -183 0 -224
3 -319 23 -327 70 -586 211 -822 446 -187 188 -304 373 -388 615 -67 192 -80
279 -80 521 0 237 13 329 75 515 238 712 957 1177 1694 1095z"/>
</g>
</svg>
